<svg width="24" height="24" viewBox="0 0 24 24" fill="none" xmlns="http://www.w3.org/2000/svg">
<path d="M12.052 14.8291L13.466 16.2431L17.71 12.0001L13.467 7.75708L12.053 9.17208L13.88 11.0001L6.34302 11.0001L6.34302 13.0001L13.88 13.0001L12.052 14.8291Z" fill="#07B88C"/>
<path fill-rule="evenodd" clip-rule="evenodd" d="M19.778 19.778C24.074 15.482 24.074 8.518 19.778 4.222C15.482 -0.0740002 8.518 -0.0740005 4.222 4.222C-0.0739997 8.518 -0.074 15.482 4.222 19.778C8.518 24.074 15.482 24.074 19.778 19.778ZM18.364 18.364C20.0518 16.6762 21.0001 14.387 21.0001 12C21.0001 9.61304 20.0518 7.32384 18.364 5.636C16.6762 3.94816 14.387 2.99994 12 2.99994C9.61304 2.99994 7.32384 3.94816 5.636 5.636C3.94816 7.32384 2.99994 9.61304 2.99994 12C2.99994 14.387 3.94816 16.6762 5.636 18.364C7.32384 20.0518 9.61304 21.0001 12 21.0001C14.387 21.0001 16.6762 20.0518 18.364 18.364Z" fill="#07B88C"/>
</svg>
