<svg width="200" height="67" viewBox="0 0 200 67" fill="none" xmlns="http://www.w3.org/2000/svg">
<g clip-path="url(#clip0_1150_1845)">
<path d="M59.0142 12.8322L65.4443 3.70389L57.4237 10.9721C51.4675 4.42726 42.9393 0.293701 33.4635 0.293701C15.4596 0.293701 0.839783 15.1745 0.839783 33.5C0.839783 51.8598 15.4596 66.7061 33.4635 66.7061C51.5012 66.7061 66.0872 51.8254 66.0872 33.5C66.1211 25.6807 63.4475 18.5158 59.0142 12.8322ZM56.1715 44.4883C56.1715 51.2054 50.8244 56.6135 44.2591 56.6135H22.7017C16.1026 56.6135 10.7893 51.171 10.7893 44.4883V22.546C10.7893 15.8289 16.1363 10.4209 22.7017 10.4209H44.2591C47.9141 10.4209 51.1629 12.0743 53.3287 14.6923L33.362 32.8454L19.7913 23.476L29.6055 42.6971C29.6731 42.8004 29.7409 42.9038 29.8425 43.0072C29.8762 43.076 29.9101 43.1104 29.944 43.1794C30.0455 43.3172 30.1131 43.455 30.2486 43.5582C30.3501 43.6616 30.4516 43.7305 30.5531 43.8338C31.8052 44.9706 33.4635 45.3494 35.0202 44.9706H35.0541C35.3247 44.9017 35.5956 44.7983 35.8663 44.6605C35.9002 44.6261 35.9339 44.6261 36.0017 44.5917C36.2385 44.4883 36.4415 44.3505 36.6785 44.1783C36.7461 44.1439 36.8139 44.0749 36.8815 44.0405C36.9831 43.9717 37.1185 43.9027 37.22 43.7994C37.2876 43.7305 37.3553 43.6272 37.4231 43.5582C37.4568 43.5238 37.4907 43.4894 37.5246 43.455L37.6261 43.3172C37.7614 43.145 37.8968 42.9727 37.9983 42.8004L55.3255 18.0679C55.8669 19.4458 56.1715 20.9614 56.1715 22.546V44.4883Z" fill="#0070E0"/>
<path d="M108.864 57.337C93.973 57.337 83.9896 47.7265 83.9896 33.4657C83.9896 19.4117 94.2099 9.59448 108.864 9.59448C118.542 9.59448 123.517 13.3491 124.803 14.4859L121.825 22.3052C119.896 20.6862 115.226 17.8616 109.507 17.8616C100.335 17.8616 94.176 24.0619 94.176 33.2935C94.176 42.3185 100.471 48.6566 109.507 48.6566C116.004 48.6566 120.201 46.0387 122.4 44.1097L125.615 51.4812C121.52 55.3048 115.869 57.337 108.864 57.337Z" fill="#0070E0"/>
<path d="M140.1 10.2488H130.184V56.5102H140.1V10.2488Z" fill="#0070E0"/>
<path d="M147.579 56.4757V23.855H157.495V56.5101H147.579V56.4757ZM152.554 18.5159C149.068 18.5159 146.8 16.5523 146.8 13.4867C146.8 10.4898 149.102 8.45752 152.554 8.45752C155.971 8.45752 158.307 10.4898 158.307 13.4867C158.273 16.5179 156.04 18.5159 152.554 18.5159Z" fill="#0070E0"/>
<path d="M181.386 57.2681C170.218 57.2681 162.707 50.4476 162.707 40.286C162.707 30.09 170.218 23.2351 181.386 23.2351C192.521 23.2351 200 30.09 200 40.286C199.966 50.4476 192.487 57.2681 181.386 57.2681ZM181.386 30.5377C176.243 30.5377 172.791 34.3612 172.791 40.0794C172.791 45.7974 176.243 49.6209 181.386 49.6209C186.531 49.6209 189.983 45.7974 189.983 40.0794C189.983 34.3612 186.531 30.5377 181.386 30.5377Z" fill="#0070E0"/>
</g>
<defs>
<clipPath id="clip0_1150_1845">
<rect width="200" height="67" fill="white"/>
</clipPath>
</defs>
</svg>
