<svg width="29" height="26" viewBox="0 0 29 26" fill="none" xmlns="http://www.w3.org/2000/svg">
<path d="M25.207 20.5944C26.0932 21.0284 26.8256 21.6387 27.4043 22.4254C27.983 23.2121 28.3492 24.0982 28.5029 25.0838H27.0109C26.9115 24.5684 26.7261 24.0892 26.4549 23.6461C26.1836 23.203 25.8535 22.8233 25.4647 22.5068C25.0759 22.1903 24.6374 21.9371 24.1491 21.7472C23.6608 21.5574 23.1544 21.4669 22.63 21.476C22.0965 21.476 21.5901 21.5664 21.1109 21.7472C20.6316 21.9281 20.1931 22.1767 19.7952 22.4932C19.3974 22.8097 19.0673 23.194 18.8051 23.6461C18.5429 24.0982 18.3575 24.5775 18.249 25.0838H16.757C16.9017 24.1073 17.2634 23.2256 17.8421 22.439C18.4208 21.6523 19.1578 21.0374 20.0529 20.5944C19.5375 20.1875 19.1397 19.6946 18.8594 19.1159C18.5791 18.5372 18.4344 17.9224 18.4253 17.2713C18.4253 16.8644 18.4796 16.4711 18.5881 16.0913C18.6966 15.7115 18.8594 15.3544 19.0764 15.0198C19.2934 14.6852 19.5511 14.3868 19.8495 14.1246C20.1479 13.8624 20.4824 13.6409 20.8532 13.46C20.609 13.1074 20.3287 12.7954 20.0122 12.5241C19.6958 12.2529 19.3522 12.0133 18.9814 11.8053C18.6107 11.5973 18.2219 11.4481 17.815 11.3577C17.4081 11.2673 16.9876 11.213 16.5536 11.1949C15.8302 11.1949 15.1385 11.3351 14.4784 11.6154C13.8183 11.8957 13.2441 12.3071 12.7558 12.8497C12.9729 13.4374 13.0814 14.0432 13.0814 14.6672C13.0814 15.499 12.896 16.2812 12.5253 17.0136C12.1545 17.746 11.6346 18.3609 10.9655 18.8582C11.5532 19.1566 12.0822 19.5228 12.5524 19.9569C13.0226 20.3909 13.4295 20.8792 13.7731 21.4217C14.1167 21.9643 14.3744 22.543 14.5462 23.1578C14.718 23.7727 14.8084 24.4147 14.8175 25.0838H13.0814C13.0814 24.3695 12.9457 23.6958 12.6745 23.0629C12.4032 22.4299 12.0325 21.8784 11.5623 21.4082C11.0921 20.938 10.536 20.5627 9.89397 20.2824C9.25197 20.0021 8.57832 19.8665 7.87302 19.8755C7.14964 19.8755 6.476 20.0111 5.85208 20.2824C5.22816 20.5537 4.67659 20.9244 4.19735 21.3946C3.71811 21.8648 3.34285 22.4209 3.07159 23.0629C2.80032 23.7049 2.66469 24.3785 2.66469 25.0838H0.928574C0.928574 24.4237 1.019 23.7863 1.19984 23.1714C1.38069 22.5565 1.63839 21.9778 1.97295 21.4353C2.30752 20.8927 2.7099 20.4045 3.18009 19.9704C3.65029 19.5364 4.18378 19.1657 4.78057 18.8582C4.11145 18.3609 3.59152 17.746 3.22078 17.0136C2.85005 16.2812 2.66469 15.499 2.66469 14.6672C2.66469 13.9528 2.80032 13.2792 3.07159 12.6462C3.34285 12.0133 3.71359 11.4617 4.18378 10.9915C4.65398 10.5213 5.20556 10.146 5.83852 9.86572C6.47147 9.58541 7.14964 9.44978 7.87302 9.45882C8.64161 9.45882 9.36952 9.62158 10.0567 9.9471C10.7439 10.2726 11.3407 10.7247 11.8471 11.3034C12.0822 11.0774 12.3354 10.8739 12.6066 10.6931C12.8779 10.5122 13.1627 10.3404 13.4611 10.1777C12.792 9.68035 12.2721 9.06548 11.9013 8.33306C11.5306 7.60064 11.3452 6.81848 11.3452 5.98659C11.3452 5.27226 11.4809 4.59861 11.7521 3.96565C12.0234 3.33269 12.3941 2.78111 12.8643 2.31092C13.3345 1.84072 13.8861 1.46547 14.5191 1.18516C15.152 0.904847 15.8302 0.769214 16.5536 0.778256C17.2679 0.778256 17.9416 0.91389 18.5745 1.18516C19.2075 1.45642 19.7591 1.82716 20.2293 2.29735C20.6995 2.76755 21.0747 3.32365 21.355 3.96565C21.6353 4.60765 21.771 5.2813 21.7619 5.98659C21.7619 6.81848 21.5766 7.60064 21.2058 8.33306C20.8351 9.06548 20.3152 9.68035 19.646 10.1777C20.279 10.5122 20.8487 10.9191 21.355 11.3984C21.8614 11.8776 22.2909 12.4337 22.6435 13.0667C23.2222 13.0667 23.7648 13.1752 24.2711 13.3922C24.7775 13.6092 25.2251 13.9121 25.6139 14.3009C26.0027 14.6898 26.3011 15.1328 26.5091 15.6302C26.7171 16.1275 26.8256 16.6745 26.8346 17.2713C26.8346 17.9224 26.6945 18.5372 26.4142 19.1159C26.1339 19.6946 25.7315 20.1875 25.207 20.5944ZM7.87302 18.1394C8.35226 18.1394 8.79985 18.049 9.2158 17.8681C9.63174 17.6873 10.0025 17.4386 10.328 17.1221C10.6535 16.8056 10.9022 16.4394 11.074 16.0235C11.2458 15.6075 11.3362 15.1554 11.3452 14.6672C11.3452 14.1879 11.2548 13.7403 11.074 13.3244C10.8931 12.9084 10.6445 12.5377 10.328 12.2122C10.0115 11.8867 9.6453 11.638 9.22936 11.4662C8.81342 11.2944 8.3613 11.204 7.87302 11.1949C7.39378 11.1949 6.94619 11.2854 6.53025 11.4662C6.11431 11.647 5.74357 11.8957 5.41805 12.2122C5.09253 12.5287 4.84387 12.8949 4.67207 13.3108C4.50026 13.7268 4.40984 14.1789 4.4008 14.6672C4.4008 15.1464 4.49122 15.594 4.67207 16.0099C4.85291 16.4259 5.10157 16.7966 5.41805 17.1221C5.73453 17.4476 6.10074 17.6963 6.51669 17.8681C6.93263 18.0399 7.38474 18.1303 7.87302 18.1394ZM13.0814 5.98659C13.0814 6.46583 13.1718 6.91342 13.3526 7.32937C13.5335 7.74531 13.7821 8.11604 14.0986 8.44157C14.4151 8.76709 14.7813 9.01575 15.1972 9.18755C15.6132 9.35935 16.0653 9.44978 16.5536 9.45882C17.0328 9.45882 17.4804 9.3684 17.8964 9.18755C18.3123 9.00671 18.683 8.75804 19.0086 8.44157C19.3341 8.12509 19.5827 7.75887 19.7545 7.34293C19.9263 6.92699 20.0168 6.47487 20.0258 5.98659C20.0258 5.50735 19.9354 5.05976 19.7545 4.64382C19.5737 4.22788 19.325 3.85714 19.0086 3.53162C18.6921 3.2061 18.3259 2.95744 17.9099 2.78564C17.494 2.61383 17.0419 2.52341 16.5536 2.51437C16.0743 2.51437 15.6268 2.60479 15.2108 2.78564C14.7949 2.96648 14.4241 3.21514 14.0986 3.53162C13.7731 3.8481 13.5244 4.21431 13.3526 4.63026C13.1808 5.0462 13.0904 5.49831 13.0814 5.98659ZM22.63 14.5315C22.2502 14.5315 21.8976 14.6039 21.572 14.7485C21.2465 14.8932 20.9572 15.0876 20.704 15.3318C20.4508 15.5759 20.2519 15.8653 20.1072 16.1998C19.9625 16.5344 19.8902 16.8916 19.8902 17.2713C19.8902 17.6511 19.9625 18.0037 20.1072 18.3293C20.2519 18.6548 20.4463 18.9441 20.6904 19.1973C20.9346 19.4505 21.2239 19.6494 21.5585 19.7941C21.893 19.9388 22.2502 20.0111 22.63 20.0111C23.0098 20.0111 23.3624 19.9388 23.6879 19.7941C24.0134 19.6494 24.3028 19.455 24.556 19.2109C24.8092 18.9667 25.0081 18.6774 25.1528 18.3428C25.2974 18.0083 25.3698 17.6511 25.3698 17.2713C25.3698 16.8916 25.2974 16.5389 25.1528 16.2134C25.0081 15.8879 24.8137 15.5985 24.5695 15.3453C24.3254 15.0921 24.036 14.8932 23.7015 14.7485C23.3669 14.6039 23.0098 14.5315 22.63 14.5315Z" fill="#07B88C"/>
</svg>
