<svg width="15" height="16" viewBox="0 0 15 16" fill="none" xmlns="http://www.w3.org/2000/svg">
<g clip-path="url(#clip0_892_5716)">
<path d="M0.75 3.5C0.75 2.675 1.425 2 2.25 2H12.75C13.1478 2 13.5294 2.15804 13.8107 2.43934C14.092 2.72064 14.25 3.10218 14.25 3.5V14C14.25 14.3978 14.092 14.7794 13.8107 15.0607C13.5294 15.342 13.1478 15.5 12.75 15.5H2.25C1.85218 15.5 1.47064 15.342 1.18934 15.0607C0.908035 14.7794 0.75 14.3978 0.75 14V3.5ZM2.25 5V14H12.75V5H2.25ZM3.75 0.5H5.25V2H3.75V0.5ZM9.75 0.5H11.25V2H9.75V0.5ZM3.75 7.25H5.25V8.75H3.75V7.25ZM3.75 10.25H5.25V11.75H3.75V10.25ZM6.75 7.25H8.25V8.75H6.75V7.25ZM6.75 10.25H8.25V11.75H6.75V10.25ZM9.75 7.25H11.25V8.75H9.75V7.25ZM9.75 10.25H11.25V11.75H9.75V10.25Z" fill="#07B88C"/>
</g>
<defs>
<clipPath id="clip0_892_5716">
<rect width="15" height="15" fill="white" transform="translate(0 0.5)"/>
</clipPath>
</defs>
</svg>
