<svg width="28" height="19" viewBox="0 0 28 19" fill="none" xmlns="http://www.w3.org/2000/svg">
<path d="M3.5 0.5C1.84531 0.5 0.5 1.84531 0.5 3.5V15.5C0.5 17.1547 1.84531 18.5 3.5 18.5H24.5C26.1547 18.5 27.5 17.1547 27.5 15.5V3.5C27.5 1.84531 26.1547 0.5 24.5 0.5H3.5ZM13.25 6.5H23.75C24.1625 6.5 24.5 6.8375 24.5 7.25C24.5 7.6625 24.1625 8 23.75 8H13.25C12.8375 8 12.5 7.6625 12.5 7.25C12.5 6.8375 12.8375 6.5 13.25 6.5ZM12.5 11.75C12.5 11.3375 12.8375 11 13.25 11H23.75C24.1625 11 24.5 11.3375 24.5 11.75C24.5 12.1625 24.1625 12.5 23.75 12.5H13.25C12.8375 12.5 12.5 12.1625 12.5 11.75ZM8.1875 4.625V5.27656C8.53906 5.33281 8.87188 5.4125 9.17656 5.49688C9.67813 5.62813 9.97344 6.14375 9.84219 6.64531C9.71094 7.14688 9.19531 7.44219 8.69375 7.31094C8.17813 7.175 7.68125 7.07656 7.23125 7.06719C6.86094 7.0625 6.48125 7.15156 6.22344 7.30156C5.99844 7.43281 5.93281 7.56406 5.93281 7.7375C5.93281 7.82187 5.9375 7.90156 6.18125 8.05156C6.47656 8.22969 6.90781 8.36563 7.50781 8.54375L7.54062 8.55313C8.06562 8.7125 8.74063 8.91406 9.27969 9.25625C9.88438 9.63594 10.4187 10.2547 10.4328 11.2062C10.4469 12.1859 9.94063 12.8984 9.27031 13.3156C8.93281 13.5266 8.55781 13.6578 8.18281 13.7375V14.375C8.18281 14.8906 7.76094 15.3125 7.24531 15.3125C6.72969 15.3125 6.30781 14.8906 6.30781 14.375V13.6906C5.825 13.5875 5.37031 13.4328 4.98594 13.2969C4.8875 13.2641 4.79375 13.2312 4.7 13.1984C4.20781 13.0344 3.94531 12.5047 4.10938 12.0125C4.27344 11.5203 4.80313 11.2578 5.29531 11.4219C5.4125 11.4594 5.525 11.5016 5.63281 11.5344C6.27031 11.75 6.75781 11.9141 7.27813 11.9328C7.68125 11.9469 8.05156 11.8578 8.28125 11.7125C8.47344 11.5953 8.5625 11.4547 8.55781 11.2203C8.55781 11.0844 8.52031 10.9859 8.28125 10.8359C7.98594 10.6484 7.55937 10.5125 6.96875 10.3344L6.88906 10.3109C6.37813 10.1562 5.73594 9.96406 5.22031 9.65469C4.625 9.29375 4.06719 8.69375 4.0625 7.74688C4.05781 6.75781 4.61563 6.07344 5.27188 5.68906C5.59531 5.49687 5.95156 5.37031 6.3125 5.29062V4.625C6.3125 4.10938 6.73438 3.6875 7.25 3.6875C7.76562 3.6875 8.1875 4.10938 8.1875 4.625Z" fill="#07B88C"/>
</svg>
