<svg width="166" height="157" viewBox="0 0 166 157" fill="none" xmlns="http://www.w3.org/2000/svg">
<g clip-path="url(#clip0_892_5114)">
<path d="M15.7136 157C6.50121 144.571 2.64436 129.986 0.726939 114.962C-1.58719 96.7914 1.65258 79.2589 8.19825 62.1005C14.6778 45.162 26.2043 33.833 43.0424 27.4535C69.3353 17.5104 96.0028 16.1026 123.155 23.4059C127.585 24.5938 132.037 25.6277 136.489 26.6836C136.776 26.7496 137.15 26.4416 138.318 25.9797C132.566 17.8404 126.902 9.83312 121.238 1.80384C121.723 1.20989 122.208 0.593945 122.692 -1.89325e-06C124.456 0.241977 126.946 -0.175986 127.894 0.835924C140.17 14.0128 152.357 27.2776 164.214 40.8064C167.41 44.458 166.198 47.7577 161.614 50.1115C159.123 51.3874 156.192 51.7834 153.68 53.0153C148.985 55.3471 144.489 58.0968 139.861 60.5606C135.629 62.8044 131.332 64.9162 126.527 67.38C126.373 60.0326 127.739 58.2728 142.726 45.184C140.368 44.0621 138.428 42.9182 136.357 42.2142C112.687 34.009 88.6858 29.4334 63.5389 34.6689C30.6563 41.5103 18.9534 51.1234 9.43245 88.4761C4.0769 109.44 8.19825 129.744 15.2068 149.675C15.9781 151.874 16.9258 154.03 17.8074 156.208L15.7136 157.022L15.7136 157Z" fill="#07B88C"/>
</g>
<defs>
<clipPath id="clip0_892_5114">
<rect width="157" height="166" fill="white" transform="translate(166) rotate(90)"/>
</clipPath>
</defs>
</svg>
