<svg width="30" height="30" viewBox="0 0 30 30" fill="none" xmlns="http://www.w3.org/2000/svg">
<path d="M4.10318 16.1905C4.10318 19.0321 5.232 21.7573 7.24132 23.7666C9.25064 25.7759 11.9759 26.9047 14.8175 26.9047C14.8175 24.0631 13.6886 21.3379 11.6793 19.3286C9.67001 17.3193 6.94479 16.1905 4.10318 16.1905ZM7.00794 19.0952C9.28175 19.9405 11.0675 21.7262 11.9127 24C10.7903 23.5836 9.77107 22.9298 8.92458 22.0833C8.07809 21.2368 7.42432 20.2176 7.00794 19.0952ZM14.8175 26.9047C17.6591 26.9047 20.3843 25.7759 22.3936 23.7666C24.4029 21.7573 25.5318 19.0321 25.5318 16.1905C22.6901 16.1905 19.9649 17.3193 17.9556 19.3286C15.9463 21.3379 14.8175 24.0631 14.8175 26.9047ZM17.6984 24.0119C18.1064 22.8749 18.7609 21.8422 19.6151 20.9881C20.4692 20.1339 21.5019 19.4793 22.6389 19.0714C22.22 20.2022 21.5616 21.2292 20.7089 22.0819C19.8562 22.9346 18.8292 23.593 17.6984 24.0119ZM14.8175 17.3809C16.7119 17.3809 18.5287 16.6284 19.8682 15.2888C21.2078 13.9493 21.9603 12.1325 21.9603 10.2381V4.28569C21.0817 4.27825 20.2095 4.43574 19.3889 4.74998C18.7341 5.02379 18.1508 5.42855 17.6627 5.94045L14.8175 3.09521L11.9722 5.94045C11.4841 5.42855 10.9008 5.02379 10.246 4.74998C9.42548 4.43574 8.55325 4.27825 7.67461 4.28569V10.2381C7.67461 12.1325 8.42716 13.9493 9.7667 15.2888C11.1062 16.6284 12.9231 17.3809 14.8175 17.3809ZM10.0556 7.39283L11.9246 9.35712L14.8175 6.46426L17.7103 9.35712L19.5794 7.39283V10.2381C19.5794 11.501 19.0777 12.7122 18.1846 13.6052C17.2916 14.4983 16.0804 15 14.8175 15C13.5545 15 12.3433 14.4983 11.4503 13.6052C10.5573 12.7122 10.0556 11.501 10.0556 10.2381V7.39283Z" fill="#07B88C"/>
</svg>
