<svg width="223" height="77" viewBox="0 0 223 77" fill="none" xmlns="http://www.w3.org/2000/svg">
<path fill-rule="evenodd" clip-rule="evenodd" d="M8.86618 15.1744C8.86822 15.1746 8.8702 15.1748 8.87221 15.1751L8.87044 15.1697L8.86618 15.1744ZM8.83491 15.1728C8.82689 15.1727 8.81878 15.1727 8.81067 15.1727C8.76878 15.1727 8.72742 15.1727 8.70021 15.1535C6.38466 13.491 4.09213 11.8015 2.2872 9.53865C0.985799 7.90846 0.372335 5.99792 0 3.77103C0.141241 3.89942 0.280883 4.02635 0.419108 4.15199C1.49031 5.12567 2.47651 6.02212 3.46271 6.91994C3.49019 6.90557 3.51723 6.89073 3.54427 6.87592C3.5713 6.86108 3.59836 6.84627 3.62583 6.83187L3.21626 4.43783L3.36165 4.31741C4.15427 5.03101 4.94732 5.74461 5.74037 6.45821C6.5333 7.17169 7.3262 7.88516 8.11866 8.59864C8.1559 8.56449 8.19314 8.53034 8.22861 8.49619C6.79246 6.26031 5.35453 4.02266 3.91661 1.78679C3.937 1.76522 3.95737 1.7441 3.97777 1.72298C3.99817 1.70187 4.01856 1.68075 4.03893 1.65918C4.09192 1.69106 4.14607 1.72119 4.20016 1.75129C4.31079 1.81285 4.42119 1.87431 4.52122 1.95035C4.99993 2.3156 5.47872 2.68074 5.95752 3.04588C12.9143 8.35121 19.8707 13.6562 26.5492 19.3215C27.0242 19.7242 27.4907 20.1371 27.9572 20.55C28.4919 21.0234 29.0266 21.4966 29.574 21.9545C30.5774 22.7939 31.285 23.8579 31.8664 25.0064C32.6024 26.4622 33.5936 27.7042 34.6804 28.9012C36.4587 30.8603 38.1784 32.8768 39.8964 34.8918C40.2564 35.3121 40.5702 35.4705 41.104 35.2279C41.4921 35.0522 41.8918 34.901 42.2908 34.7499C42.8601 34.5346 43.4285 34.3197 43.962 34.0342C45.611 33.1536 47.2546 33.141 48.8983 33.9104C49.8948 34.376 50.8599 34.9127 51.8244 35.4495C52.0476 35.5736 52.2705 35.6977 52.4938 35.821C53.1605 36.1895 53.6676 36.716 53.9089 37.4761C54.2369 38.5079 54.0365 39.3615 53.1285 39.9009C52.5737 40.2314 52.3306 40.6502 52.2492 41.2577C51.8946 40.8802 51.6864 40.1615 51.6252 39.101C51.0612 39.1513 50.6145 39.3147 50.1979 39.7822C49.8202 40.2065 49.3974 40.5897 48.9744 40.9729C48.6484 41.2682 48.3225 41.5636 48.017 41.8778C46.7884 43.145 46.7457 43.3803 47.9992 44.6493C48.752 45.4112 49.4821 46.1965 50.2121 46.9814C51.7294 48.6135 53.2469 50.2455 54.9708 51.6716C55.7402 52.3076 56.4495 53.0752 57.015 53.9018C59.2774 57.2127 62.1197 59.9374 65.1693 62.4699C65.3907 62.6543 65.5873 62.869 65.7842 63.084C65.8881 63.1976 65.9923 63.3112 66.1001 63.4207C66.1687 63.4905 66.2342 63.5691 66.2999 63.6474C66.4532 63.8306 66.6069 64.0141 66.8005 64.0944C67.876 64.5391 68.7458 65.2743 69.6153 66.0089C70.057 66.3825 70.4987 66.7558 70.9671 67.0908C72.1178 67.9138 73.2312 68.8269 74.2188 69.8442C76.6849 72.3839 79.5432 74.2801 82.7929 75.5973C83.3658 75.8294 83.9277 76.0864 84.4828 76.3955C82.0874 76.7997 79.7363 76.7047 77.4614 75.6459C77.4585 75.6576 77.4552 75.6693 77.4523 75.6813C77.4375 75.7365 77.4226 75.7925 77.4067 75.8471C77.5875 76.0126 77.7702 76.1778 78.0929 76.4708C76.4119 76.2858 74.9741 75.8006 73.5717 75.1716L73.4491 75.3548C73.8482 75.7395 74.247 76.1242 74.7168 76.5769C72.481 75.7521 70.8516 74.3284 69.5786 72.4412C69.9501 72.6993 70.3217 72.9566 70.6929 73.2142C71.0645 73.4717 71.436 73.729 71.8075 73.9869C71.8516 73.9548 71.896 73.9224 71.9422 73.89C71.7969 73.5593 71.6512 73.2286 71.5059 72.896C71.902 73.1308 72.2732 73.4124 72.6439 73.6936C73.4595 74.3128 74.2736 74.9308 75.35 75.0456L75.3503 75.0453C75.398 74.9895 75.4456 74.9341 75.4936 74.8804C75.2026 74.5524 74.9125 74.2243 74.622 73.8963C74.3316 73.5683 74.0415 73.2403 73.7505 72.9122C73.7682 72.887 73.7842 72.8637 73.802 72.8385C74.0489 72.9881 74.2934 73.1419 74.5383 73.2957C75.0931 73.6444 75.6478 73.9932 76.2275 74.2924C77.0928 74.7383 77.9863 75.1464 78.9064 75.4555C79.5352 75.6663 80.1868 75.8084 80.8381 75.9508C81.1312 76.015 81.424 76.0789 81.715 76.1493C81.7292 76.1161 81.7429 76.0822 81.7568 76.0486C81.7704 76.0147 81.7843 75.9811 81.7985 75.9478C81.7523 75.9158 81.707 75.8819 81.662 75.8483C81.5682 75.7778 81.4746 75.7077 81.3728 75.6531C80.8885 75.3892 80.4018 75.1293 79.9151 74.8696C78.9132 74.3341 77.9114 73.7989 76.928 73.2304C75.6656 72.5005 74.6034 71.5192 73.5592 70.4841C72.7803 69.7105 71.9088 69.0317 71.0375 68.3528C70.6435 68.0458 70.2494 67.7387 69.8643 67.4233C69.6905 67.2809 69.5197 67.1345 69.3492 66.9885C69.0478 66.7301 68.7461 66.4716 68.4279 66.2353C68.1454 66.0245 67.8458 65.838 67.5462 65.6515C67.3704 65.5424 67.1945 65.4329 67.0219 65.3184C66.9097 65.2443 66.7955 65.1724 66.6809 65.1004C66.3689 64.9043 66.0562 64.7076 65.7862 64.4629C65.2294 63.9595 64.6838 63.4429 64.1379 62.9259C63.5209 62.3418 62.9036 61.7574 62.2704 61.1919C60.4228 59.5437 58.7066 57.777 57.2723 55.7441C56.1499 54.1537 54.7899 52.8002 53.3786 51.4647C51.7966 49.9682 50.2915 48.3883 48.7864 46.8081C48.1981 46.1905 47.6099 45.5728 47.0169 44.9602C46.9364 44.8771 46.8816 44.7692 46.8254 44.6571C46.7975 44.6019 46.7691 44.5458 46.7368 44.4912C44.2299 47.0183 41.2742 48.0894 38.0278 48.4327C36.443 48.6006 34.8535 48.7166 33.2641 48.833C32.6752 48.8759 32.0864 48.919 31.4979 48.9646C31.3898 48.9733 31.2814 48.9763 31.1734 48.9796C31.0177 48.9841 30.8631 48.9886 30.713 49.009C31.4665 48.8729 32.2214 48.7409 32.976 48.609C34.8722 48.278 36.7684 47.9466 38.65 47.5449C40.7404 47.0972 42.7476 46.3425 44.3948 44.8936C45.0349 44.3329 45.6501 43.6859 46.0915 42.9617C46.8221 41.7648 47.776 40.8122 48.797 39.8991C48.8666 39.8368 48.9454 39.7792 49.0238 39.7213C49.1952 39.5951 49.3663 39.4689 49.4442 39.2986C49.7672 38.5879 50.3779 38.4194 50.9884 38.2512C51.1589 38.2041 51.3297 38.1571 51.494 38.098C51.6249 38.0503 51.7815 38.0599 51.9251 38.0689L51.9319 38.0692C52.6128 38.116 52.7279 38.2707 52.6074 38.9501C52.6009 38.9855 52.5932 39.0209 52.5855 39.0563C52.5746 39.1082 52.5633 39.16 52.5559 39.2125C52.5533 39.2305 52.5627 39.2494 52.5719 39.2686C52.5758 39.2761 52.5796 39.2839 52.5826 39.2917C53.2386 38.9034 53.4743 38.4791 53.1161 37.9094C52.7652 37.3523 52.2688 36.8272 51.719 36.4752C50.7261 35.8408 49.6624 35.3139 48.6019 34.7982C47.2191 34.1278 45.8576 34.1206 44.4336 34.836C43.6287 35.2411 42.7802 35.5568 41.9311 35.8728C41.4767 36.042 41.022 36.2114 40.5738 36.3943C40.1768 36.5559 39.9532 36.441 39.6785 36.1193C39.526 35.94 39.3736 35.7607 39.2208 35.5814C37.3685 33.4039 35.5143 31.2244 33.606 29.0989C32.6412 28.0241 31.7921 26.89 31.1521 25.5995C30.4623 24.2084 29.5066 23.0545 28.3116 22.0858C27.9422 21.7863 27.5727 21.4868 27.2032 21.1873C22.1047 17.0547 17.0069 12.9227 11.9183 8.77657C10.8726 7.92507 9.84689 7.04902 8.82112 6.17291C8.37888 5.79519 7.93665 5.41748 7.49279 5.04175C7.47804 5.02927 7.46333 5.0168 7.44859 5.00433C7.03439 4.65369 6.62066 4.30344 6.12757 4.01187C6.84806 5.37124 7.68658 6.65284 8.52575 7.93545C9.1301 8.85915 9.73478 9.78332 10.2959 10.7375C8.09207 9.35173 6.16481 7.61911 4.10986 5.72653C4.19557 6.64903 4.4793 7.39531 4.75915 8.13136C4.87295 8.43067 4.9861 8.72829 5.08504 9.03539C3.79073 7.93542 2.49641 6.83547 1.20034 5.7337C1.16931 5.75169 1.13828 5.7692 1.10726 5.78674C1.07623 5.80425 1.0452 5.82179 1.01417 5.83975C1.08041 5.9972 1.14229 6.15692 1.20413 6.31659C1.33925 6.66543 1.47421 7.01388 1.65423 7.33693C2.68258 9.18277 4.12227 10.6907 5.61162 12.1483C6.34587 12.8653 7.09881 13.5624 7.85162 14.2594C8.17994 14.5633 8.50823 14.8672 8.83491 15.1728ZM30.713 49.009C30.6583 49.0165 30.6044 49.0261 30.5508 49.0384C30.605 49.0285 30.6589 49.0189 30.713 49.009ZM8.83491 15.1728C8.84554 15.173 8.85605 15.1734 8.86618 15.1744L8.85271 15.1894C8.84678 15.1839 8.84083 15.1783 8.83491 15.1728ZM19.2514 41.1204C19.9498 41.3216 20.5866 41.5051 21.1291 41.6658L21.1256 41.6604L21.4412 41.673C16.9678 39.8991 12.4909 38.1304 8.01406 36.3655C7.28535 36.0797 7.27117 36.0923 7.04066 36.8362C7.033 36.8608 7.02486 36.8857 7.01668 36.9106C6.97752 37.0296 6.93728 37.152 6.94315 37.2695C6.97154 37.7691 6.81549 38.0962 6.30842 38.2851C5.85985 38.4539 5.61162 38.8566 5.68255 39.3597C5.71488 39.5894 5.7772 39.8149 5.8396 40.0404C5.88662 40.2107 5.93369 40.381 5.968 40.5531C6.00169 40.724 6.04246 40.9828 5.95204 41.0781C5.25524 41.8112 5.37049 42.5752 5.78359 43.3839C5.86871 43.553 5.94138 43.7794 5.90417 43.9554C5.67367 45.0466 6.16303 45.7494 7.06906 46.2129C7.39172 46.3785 7.50519 46.5203 7.37224 46.8978C7.1772 47.4495 7.42011 47.9421 7.87575 48.2117C8.47504 48.5676 8.97503 48.9214 9.04596 49.7034C9.06017 49.8563 9.22954 50.0033 9.38476 50.1379C9.42307 50.1712 9.46049 50.2039 9.49453 50.2354C9.56091 50.2971 9.64712 50.3484 9.7319 50.3988C9.86681 50.4791 9.99817 50.5574 10.0406 50.6722C10.3899 51.6104 11.1984 51.8026 12.0087 51.9771C12.3385 52.047 12.4236 52.1855 12.4519 52.5055C12.5441 53.5477 12.7799 53.7078 13.787 53.9378C14.0652 54.0023 14.3225 54.1375 14.5811 54.2739C14.9737 54.4805 15.3696 54.6889 15.8473 54.6532C15.8713 54.6511 15.8981 54.7063 15.9268 54.7654C15.9445 54.802 15.963 54.8404 15.982 54.867C16.576 55.7012 17.9997 55.9276 18.7745 55.408C18.6406 55.3648 18.4982 55.3219 18.3509 55.2778C18.0104 55.1759 17.6431 55.0658 17.2905 54.9192C16.8774 54.7486 16.7232 54.4485 17.0068 53.99C17.1247 53.7996 17.1924 53.5756 17.26 53.3519C17.29 53.2527 17.32 53.1534 17.3543 53.0572C17.3161 53.0284 17.2788 52.9987 17.2411 52.969C17.2246 52.9558 17.208 52.9426 17.1912 52.9295C17.0734 52.9855 16.9564 53.0434 16.8394 53.1013C16.5691 53.235 16.2989 53.3687 16.0192 53.4779C15.8572 53.5408 15.681 53.5663 15.5048 53.5921C15.4247 53.6038 15.3445 53.6155 15.2657 53.6305C15.2662 53.5684 15.2662 53.5063 15.2662 53.4443C15.2662 53.2578 15.2662 53.0707 15.2781 52.8848C15.2838 52.8023 15.3038 52.7208 15.3349 52.5936C15.3527 52.5211 15.3742 52.4332 15.3987 52.322C15.2336 52.3984 15.0837 52.4713 14.9436 52.5397C14.6216 52.6965 14.3513 52.8281 14.0671 52.9172C13.9362 52.9579 13.7808 52.9151 13.6254 52.8719C13.5556 52.8527 13.4858 52.8335 13.4182 52.8218C13.4286 52.7621 13.4346 52.7001 13.4406 52.6377C13.4542 52.4968 13.4678 52.3552 13.5317 52.2431C13.6832 51.9741 13.8599 51.7202 14.0322 51.4722C14.102 51.3718 14.171 51.2725 14.2374 51.1736C13.984 51.1541 13.7367 51.1379 13.4939 51.122C12.884 51.0818 12.3031 51.0437 11.7285 50.9616C11.4801 50.9265 11.2366 50.7025 11.0309 50.5133L11.014 50.4977C10.8835 50.3781 10.7665 50.242 10.6497 50.1058C10.5032 49.9352 10.3569 49.7649 10.1842 49.6279C9.82255 49.3421 9.68602 49.1355 10.1576 48.8354C10.3299 48.7256 10.4854 48.5886 10.669 48.427C10.7594 48.3472 10.8567 48.2618 10.9662 48.1703C10.7911 48.1511 10.6347 48.1376 10.4914 48.1254C10.2066 48.1008 9.97339 48.081 9.74807 48.0282C9.37751 47.9421 9.00165 47.8288 8.66652 47.651C8.17541 47.3901 8.17896 47.09 8.61335 46.7827C8.69998 46.7218 8.81973 46.6828 8.93924 46.6438C9.21359 46.5548 9.4866 46.466 9.35447 46.1107C9.28384 45.923 8.95943 45.8279 8.64509 45.7359C8.52534 45.7008 8.40707 45.6663 8.30484 45.6271C8.24021 45.6022 8.16786 45.5971 8.09577 45.5917C8.0175 45.5863 7.93958 45.5806 7.87223 45.5497C7.82649 45.5287 7.7801 45.5077 7.7335 45.4867C7.48382 45.3743 7.22809 45.2591 7.03537 45.0789C6.57614 44.6475 6.63289 44.3545 7.18428 44.0544C7.35329 43.9632 7.52879 43.8844 7.70526 43.8052C7.78984 43.7671 7.87466 43.729 7.95909 43.6895C7.80867 43.5968 7.656 43.5123 7.50552 43.4289C7.17714 43.2469 6.8594 43.0709 6.5992 42.8304C6.11869 42.3848 6.3155 41.849 6.9538 41.7414C7.0946 41.7177 7.2402 41.7249 7.38621 41.7318C7.50679 41.7378 7.62767 41.7438 7.74632 41.7324C7.99382 41.7087 8.23873 41.6679 8.48348 41.6271C8.59292 41.6089 8.70234 41.5909 8.81191 41.5741C8.81902 41.5318 8.82654 41.4901 8.83408 41.4484C8.8416 41.4065 8.84915 41.3648 8.85626 41.3225C8.73716 41.2523 8.61809 41.1819 8.49896 41.1117C8.07182 40.8595 7.64421 40.6068 7.21441 40.3609C6.81019 40.1309 6.38643 39.8524 6.59387 39.3273C6.75767 38.9124 7.11047 38.9828 7.44438 39.0497C7.5297 39.0668 7.61378 39.0836 7.69315 39.092C7.96667 39.1199 8.23859 39.1651 8.54073 39.2155C8.68511 39.2395 8.83642 39.2647 8.99809 39.2899C8.87538 38.9486 8.6336 38.7208 8.4026 38.5031C8.07623 38.1954 7.77143 37.9082 7.8545 37.3505C7.91957 37.367 7.97958 37.3787 8.03535 37.3898C8.13761 37.4098 8.22568 37.4269 8.30484 37.4653C10.837 38.6944 15.798 40.1246 19.2514 41.1204Z" fill="#636363"/>
<path fill-rule="evenodd" clip-rule="evenodd" d="M9.94642 13.8595C9.94844 13.8596 9.95039 13.8598 9.95238 13.8601L9.95063 13.8547L9.94642 13.8595ZM9.91561 13.8578C9.9077 13.8577 9.8997 13.8577 9.89171 13.8577C9.85042 13.8577 9.80965 13.8577 9.78283 13.8385C7.50035 12.176 5.24058 10.4865 3.46143 8.22371C2.17863 6.59352 1.57392 4.68298 1.20691 2.45609C1.34613 2.58448 1.48378 2.71141 1.62003 2.83705C2.67593 3.81073 3.64804 4.70717 4.62015 5.605C4.64723 5.59063 4.6739 5.57579 4.70054 5.56098C4.72719 5.54614 4.75386 5.53132 4.78094 5.51693L4.37721 3.1229L4.52052 3.00248C5.30183 3.71607 6.08355 4.42967 6.86527 5.14327C7.64688 5.85674 8.42845 6.57022 9.20959 7.2837C9.2463 7.24955 9.28301 7.2154 9.31797 7.18124C7.90233 4.94537 6.48495 2.70772 5.06756 0.471848C5.08767 0.45028 5.10775 0.429162 5.12785 0.408043C5.14796 0.386925 5.16806 0.365806 5.18814 0.344238C5.24038 0.376116 5.29375 0.406248 5.34706 0.436354C5.45612 0.497912 5.56494 0.559363 5.66354 0.635404C6.13541 1.00066 6.60737 1.3658 7.07932 1.73094C13.9368 7.03627 20.7937 12.3413 27.3769 18.0065C27.8451 18.4093 28.3049 18.8222 28.7647 19.2351C29.2918 19.7084 29.8189 20.1817 30.3584 20.6396C31.3475 21.479 32.045 22.543 32.6181 23.6914C33.3436 25.1473 34.3206 26.3892 35.3918 27.5862C37.1448 29.5453 38.8399 31.5619 40.5334 33.5768C40.8882 33.9972 41.1975 34.1555 41.7237 33.9129C42.1063 33.7372 42.5002 33.5861 42.8936 33.435C43.4547 33.2197 44.015 33.0047 44.5409 32.7193C46.1663 31.8386 47.7865 31.826 49.4066 32.5954C50.3889 33.0611 51.3402 33.5978 52.291 34.1345C52.511 34.2587 52.7307 34.3828 52.9508 34.506C53.6079 34.8745 54.1078 35.4011 54.3456 36.1612C54.669 37.1929 54.4714 38.0466 53.5764 38.586C53.0296 38.9164 52.79 39.3353 52.7097 39.9428C52.3601 39.5653 52.155 38.8466 52.0946 37.786C51.5387 37.8364 51.0983 37.9998 50.6877 38.4673C50.3154 38.8915 49.8986 39.2747 49.4816 39.6579C49.1603 39.9533 48.8391 40.2486 48.5379 40.5629C47.3269 41.83 47.2848 42.0654 48.5204 43.3343C49.2625 44.0962 49.9821 44.8815 50.7017 45.6665C52.1973 47.2986 53.6931 48.9306 55.3924 50.3567C56.1508 50.9926 56.85 51.7602 57.4074 52.5869C59.6375 55.8978 62.4392 58.6225 65.4452 61.1549C65.6635 61.3393 65.8572 61.554 66.0513 61.769C66.1537 61.8827 66.2565 61.9963 66.3627 62.1057C66.4304 62.1756 66.4949 62.2542 66.5597 62.3324C66.7108 62.5156 66.8623 62.6991 67.0531 62.7795C68.1133 63.2242 68.9706 63.9594 69.8277 64.694C70.2631 65.0676 70.6985 65.4409 71.1601 65.7758C72.2944 66.5989 73.392 67.5119 74.3655 68.5293C76.7963 71.069 79.6138 72.9652 82.8171 74.2824C83.3817 74.5145 83.9356 74.7714 84.4828 75.0806C82.1217 75.4848 79.8041 75.3897 77.5618 74.331C77.5588 74.3427 77.5556 74.3544 77.5527 74.3663C77.5381 74.4215 77.5235 74.4776 77.5078 74.5322C77.6861 74.6977 77.8661 74.8629 78.1842 75.1558C76.5273 74.9708 75.1099 74.4857 73.7276 73.8566L73.6068 74.0398C74.0001 74.4245 74.3932 74.8092 74.8563 75.262C72.6525 74.4371 71.0463 73.0135 69.7915 71.1262C70.1578 71.3844 70.524 71.6417 70.8899 71.8992C71.2562 72.1568 71.6224 72.4141 71.9886 72.6719C72.0321 72.6398 72.0759 72.6075 72.1214 72.5751C71.9781 72.2444 71.8345 71.9136 71.6913 71.5811C72.0817 71.8159 72.4476 72.0974 72.813 72.3787C73.617 72.9979 74.4194 73.6158 75.4805 73.7307C75.5275 73.6749 75.5748 73.6191 75.622 73.5655C75.3352 73.2374 75.0492 72.9094 74.7629 72.5814C74.4767 72.2533 74.1907 71.9253 73.9038 71.5973C73.9213 71.5721 73.9371 71.5487 73.9546 71.5235C74.198 71.6731 74.439 71.827 74.6803 71.9808C75.2272 72.3295 75.7741 72.6782 76.3454 72.9775C77.1984 73.4233 78.0791 73.8314 78.9861 74.1406C79.6059 74.3514 80.2482 74.4935 80.8902 74.6359C81.1791 74.7001 81.4677 74.7639 81.7546 74.8344C81.7686 74.8011 81.782 74.7672 81.7957 74.7337C81.8091 74.6998 81.8229 74.6662 81.8369 74.6329C81.7913 74.6008 81.7467 74.5669 81.7023 74.5334C81.6098 74.4629 81.5176 74.3927 81.4172 74.3382C80.9398 74.0743 80.4601 73.8143 79.9803 73.5547C78.9928 73.0191 78.0053 72.4839 77.0359 71.9154C75.7916 71.1856 74.7445 70.2042 73.7153 69.1692C72.9475 68.3956 72.0884 67.7167 71.2296 67.0379C70.8412 66.7308 70.4528 66.4238 70.0731 66.1084C69.9018 65.9659 69.7335 65.8196 69.5654 65.6736C69.2683 65.4151 68.9709 65.1566 68.6572 64.9204C68.3788 64.7096 68.0835 64.5231 67.7882 64.3366C67.6149 64.2274 67.4415 64.118 67.2714 64.0034C67.1608 63.9294 67.0482 63.8574 66.9352 63.7855C66.6276 63.5894 66.3195 63.3927 66.0534 63.148C65.5044 62.6446 64.9666 62.1279 64.4285 61.611C63.8204 61.0269 63.2119 60.4425 62.5877 59.877C60.7665 58.2288 59.0748 56.4621 57.661 54.4291C56.5547 52.8388 55.2141 51.4853 53.823 50.1498C52.2635 48.6532 50.7799 47.0734 49.2963 45.4932C48.7165 44.8755 48.1367 44.2578 47.5521 43.6453C47.4728 43.5622 47.4188 43.4543 47.3633 43.3421C47.3359 43.2869 47.3079 43.2309 47.2761 43.1763C44.805 45.7034 41.8915 46.7744 38.6914 47.1178C37.1293 47.2857 35.5625 47.4017 33.9958 47.518C33.4154 47.5609 32.8349 47.6041 32.2548 47.6497C32.1483 47.6584 32.0415 47.6614 31.935 47.6647C31.7815 47.6692 31.6291 47.6737 31.4812 47.694C32.2239 47.5579 32.968 47.426 33.7118 47.2941C35.5809 46.963 37.45 46.6317 39.3048 46.2299C41.3653 45.7822 43.3438 45.0275 44.9675 43.5787C45.5984 43.018 46.2048 42.3709 46.6399 41.6468C47.3601 40.4498 48.3004 39.4972 49.3068 38.5842C49.3754 38.5218 49.453 38.4643 49.5304 38.4064C49.6993 38.2802 49.868 38.1539 49.9448 37.9836C50.2631 37.273 50.8651 37.1045 51.4669 36.9363C51.635 36.8892 51.8033 36.8421 51.9653 36.783C52.0943 36.7354 52.2486 36.745 52.3902 36.754L52.3969 36.7543C53.0681 36.801 53.1816 36.9557 53.0628 37.6352C53.0564 37.6706 53.0488 37.706 53.0412 37.7413C53.0304 37.7932 53.0193 37.8451 53.012 37.8976C53.0094 37.9155 53.0188 37.9344 53.0278 37.9536C53.0316 37.9611 53.0354 37.9689 53.0383 37.9767C53.685 37.5884 53.9173 37.1641 53.5642 36.5944C53.2184 36.0373 52.729 35.5123 52.1871 35.1603C51.2083 34.5258 50.1598 33.999 49.1145 33.4833C47.7515 32.8128 46.4094 32.8056 45.0057 33.521C44.2123 33.9261 43.3759 34.2419 42.539 34.5579C42.0911 34.727 41.6428 34.8964 41.201 35.0793C40.8097 35.2409 40.5894 35.1261 40.3186 34.8044C40.1683 34.6251 40.018 34.4458 39.8674 34.2665C38.0415 32.089 36.2139 29.9096 34.3328 27.784C33.3818 26.7092 32.5449 25.575 31.914 24.2846C31.234 22.8934 30.292 21.7396 29.1141 20.7708C28.7499 20.4713 28.3857 20.1719 28.0215 19.8724C22.9958 15.7398 17.9708 11.6077 12.9549 7.46163C11.9242 6.61013 10.9131 5.73408 9.90201 4.85796C9.46609 4.48025 9.03018 4.10254 8.59266 3.7268C8.57812 3.71433 8.56362 3.70186 8.54909 3.68938C8.14081 3.33875 7.73299 2.98851 7.24694 2.69693C7.95714 4.0563 8.78368 5.33789 9.61086 6.62051C10.2066 7.5442 10.8026 8.46838 11.3558 9.42251C9.18338 8.03679 7.28365 6.30417 5.25806 4.41159C5.34254 5.33409 5.62222 6.08037 5.89807 6.81642C6.01025 7.11573 6.12178 7.41335 6.21931 7.72045C4.94348 6.62048 3.66766 5.52053 2.3901 4.41875C2.35951 4.43674 2.32893 4.45426 2.29835 4.4718C2.26776 4.48931 2.23718 4.50685 2.20659 4.52481C2.27189 4.68226 2.33288 4.84198 2.39383 5.00165C2.52703 5.35049 2.66006 5.69894 2.83751 6.02199C3.85117 7.86783 5.27029 9.37577 6.73836 10.8334C7.46213 11.5503 8.20431 12.2474 8.94637 12.9444C9.26999 13.2484 9.59359 13.5523 9.91561 13.8578ZM31.4812 47.694C31.4272 47.7015 31.3741 47.7111 31.3213 47.7234C31.3747 47.7135 31.4278 47.7039 31.4812 47.694ZM9.91561 13.8578C9.92608 13.858 9.93644 13.8585 9.94642 13.8595L9.93315 13.8745C9.92731 13.8689 9.92144 13.8634 9.91561 13.8578ZM20.1833 39.8055C20.8717 40.0067 21.4994 40.1902 22.0342 40.3509L22.0307 40.3455L22.3418 40.3581C17.9323 38.5842 13.5194 36.8154 9.10649 35.0505C8.38818 34.7648 8.3742 34.7774 8.14699 35.5213C8.13943 35.5459 8.13141 35.5708 8.12335 35.5957C8.08475 35.7147 8.04509 35.837 8.05087 35.9546C8.07885 36.4541 7.92504 36.7812 7.42521 36.9701C6.98305 37.139 6.73836 37.5416 6.80828 38.0448C6.84015 38.2745 6.90158 38.4999 6.96309 38.7254C7.00943 38.8957 7.05583 39.0661 7.08965 39.2382C7.12286 39.4091 7.16304 39.6678 7.07392 39.7632C6.38707 40.4963 6.50068 41.2603 6.90788 42.069C6.99178 42.2381 7.06342 42.4645 7.02674 42.6405C6.79953 43.7316 7.2819 44.4344 8.17498 44.898C8.49303 45.0635 8.60488 45.2053 8.47383 45.5829C8.28158 46.1346 8.52101 46.6272 8.97015 46.8968C9.56088 47.2527 10.0537 47.6065 10.1236 48.3885C10.1377 48.5414 10.3046 48.6883 10.4576 48.823C10.4954 48.8562 10.5322 48.8889 10.5658 48.9204C10.6312 48.9822 10.7162 49.0335 10.7998 49.0838C10.9328 49.1642 11.0622 49.2424 11.1041 49.3573C11.4484 50.2955 12.2453 50.4877 13.044 50.6622C13.3691 50.7321 13.453 50.8706 13.481 51.1905C13.5718 52.2328 13.8043 52.3929 14.797 52.6229C15.0712 52.6873 15.3248 52.8226 15.5798 52.959C15.9667 53.1656 16.3569 53.374 16.8278 53.3383C16.8515 53.3362 16.8779 53.3914 16.9061 53.4505C16.9237 53.487 16.9419 53.5254 16.9606 53.5521C17.5461 54.3863 18.9495 54.6126 19.7132 54.093C19.5812 54.0498 19.4409 54.007 19.2956 53.9629C18.96 53.8609 18.598 53.7509 18.2504 53.6043C17.8432 53.4337 17.6912 53.1335 17.9708 52.6751C18.087 52.4847 18.1537 52.2607 18.2203 52.037C18.2499 51.9377 18.2795 51.8385 18.3133 51.7422C18.2757 51.7135 18.2388 51.6838 18.2017 51.6541C18.1854 51.6409 18.1691 51.6277 18.1526 51.6145C18.0364 51.6706 17.9211 51.7285 17.8058 51.7863C17.5393 51.9201 17.273 52.0538 16.9973 52.1629C16.8376 52.2259 16.6639 52.2514 16.4902 52.2772C16.4112 52.2889 16.3322 52.3006 16.2545 52.3155C16.255 52.2535 16.255 52.1914 16.255 52.1293C16.255 51.9428 16.255 51.7557 16.2668 51.5698C16.2723 51.4874 16.292 51.4058 16.3227 51.2787C16.3403 51.2061 16.3615 51.1183 16.3856 51.007C16.2229 51.0835 16.0751 51.1563 15.937 51.2247C15.6196 51.3815 15.3532 51.5132 15.0731 51.6022C14.9441 51.643 14.7909 51.6001 14.6376 51.5569C14.5689 51.5377 14.5001 51.5186 14.4335 51.5069C14.4436 51.4472 14.4495 51.3851 14.4555 51.3228C14.4689 51.1818 14.4823 51.0403 14.5453 50.9282C14.6946 50.6592 14.8688 50.4052 15.0387 50.1573C15.1074 50.0568 15.1755 49.9576 15.2409 49.8586C14.9912 49.8391 14.7473 49.8229 14.5081 49.8071C13.9068 49.7669 13.3342 49.7288 12.7679 49.6466C12.523 49.6116 12.283 49.3876 12.0802 49.1984L12.0636 49.1828C11.9349 49.0631 11.8196 48.927 11.7044 48.7909C11.56 48.6203 11.4158 48.45 11.2457 48.3129C10.8891 48.0272 10.7546 47.8206 11.2194 47.5204C11.3892 47.4107 11.5425 47.2737 11.7234 47.1121C11.8126 47.0323 11.9085 46.9468 12.0164 46.8554C11.8438 46.8362 11.6897 46.8227 11.5485 46.8104C11.2677 46.7858 11.0378 46.766 10.8157 46.7133C10.4505 46.6272 10.08 46.5139 9.74962 46.3361C9.26553 46.0752 9.26903 45.7751 9.69721 45.4677C9.7826 45.4068 9.90064 45.3679 10.0184 45.3289C10.2889 45.2398 10.558 45.1511 10.4277 44.7958C10.3581 44.6081 10.0383 44.513 9.7285 44.421C9.61046 44.3859 9.49387 44.3514 9.39311 44.3121C9.32941 44.2872 9.25809 44.2821 9.18703 44.2767C9.10987 44.2713 9.03307 44.2656 8.96668 44.2348C8.92159 44.2138 8.87586 44.1928 8.82993 44.1718C8.58381 44.0593 8.33174 43.9442 8.14177 43.764C7.6891 43.3325 7.74504 43.0396 8.28855 42.7394C8.45515 42.6483 8.62814 42.5694 8.80209 42.4903C8.88547 42.4522 8.96907 42.4141 9.0523 42.3745C8.90402 42.2819 8.75353 42.1973 8.6052 42.114C8.28152 41.932 7.96831 41.756 7.71183 41.5155C7.23819 41.0699 7.43219 40.5341 8.06137 40.4264C8.20016 40.4028 8.34368 40.41 8.4876 40.4168C8.60646 40.4228 8.72561 40.4288 8.84257 40.4174C9.08653 40.3938 9.32795 40.353 9.56919 40.3122C9.67708 40.2939 9.78493 40.2759 9.89293 40.2591C9.89994 40.2169 9.90735 40.1752 9.91479 40.1335C9.9222 40.0915 9.92964 40.0498 9.93665 40.0076C9.81925 39.9374 9.70188 39.8669 9.58445 39.7968C9.16342 39.5446 8.74192 39.2918 8.31826 39.046C7.91981 38.816 7.50211 38.5374 7.70658 38.0124C7.86804 37.5974 8.2158 37.6679 8.54494 37.7347C8.62905 37.7518 8.71192 37.7686 8.79016 37.777C9.05977 37.8049 9.3278 37.8502 9.62563 37.9006C9.76795 37.9245 9.9171 37.9497 10.0765 37.9749C9.9555 37.6337 9.71717 37.4058 9.48947 37.1881C9.16777 36.8805 8.86731 36.5932 8.9492 36.0355C9.01334 36.052 9.07249 36.0637 9.12747 36.0748C9.22826 36.0949 9.31508 36.112 9.39311 36.1504C11.8891 37.3794 16.7792 38.8097 20.1833 39.8055Z" fill="#C6C6C6"/>
<path fill-rule="evenodd" clip-rule="evenodd" d="M138.66 42.3006C138.791 43.5181 139.024 45.4102 140.443 45.8826C141.4 46.1873 142.158 46.1873 142.489 46.1873C142.653 46.1873 142.852 46.2214 142.852 46.3891C142.852 46.5913 142.753 46.6596 142.358 46.6596C141.633 46.6596 137.871 46.5572 136.649 46.4574C135.891 46.3891 135.725 46.2893 135.725 46.119C135.725 45.9824 135.791 45.9508 135.955 45.8826C136.186 45.7801 136.152 45.274 136.088 44.6651L134.505 27.0201L126.322 44.8017C126.234 44.9912 126.155 45.1615 126.084 45.3143C125.6 46.3619 125.493 46.594 125.234 46.594C125.01 46.594 124.847 46.2757 124.267 45.1462L124.212 45.0376C123.438 43.5435 121.051 38.6354 120.472 37.4438L120.395 37.2857L120.352 37.1964C120.055 36.5879 116.262 28.2375 115.898 27.327L114.546 43.2479L114.536 43.4034C114.507 43.881 114.479 44.3166 114.479 44.8358C114.479 45.6807 114.876 45.9508 115.37 46.0533C115.931 46.1899 116.359 46.1899 116.559 46.1899C116.759 46.1899 116.889 46.2577 116.889 46.3575C116.889 46.594 116.725 46.6622 116.395 46.6622C115.561 46.6622 114.512 46.6145 113.846 46.5839C113.537 46.5699 113.31 46.5598 113.227 46.5598C113.118 46.5598 112.837 46.5734 112.481 46.5909H112.48C111.863 46.6211 111.02 46.6622 110.455 46.6622C110.125 46.6622 109.895 46.6281 109.895 46.3917C109.895 46.2551 110.058 46.1899 110.225 46.1899C110.489 46.1899 110.719 46.1899 111.216 46.0874C112.235 45.8983 112.358 44.8196 112.505 43.5465V43.5461V43.5456C112.514 43.4585 112.525 43.3705 112.535 43.2821L114.909 21.31C114.943 20.937 115.073 20.6328 115.273 20.6328C115.473 20.6328 115.603 20.7693 115.767 21.1393L125.864 42.4004L135.563 21.1708C135.696 20.8665 135.827 20.6301 136.057 20.6301C136.288 20.6301 136.388 20.9002 136.455 21.5433L138.665 42.298L138.66 42.3006ZM95.2393 23.6084C95.3056 24.6897 95.3056 25.6345 95.3056 30.9089H95.3081V36.858C95.3081 39.8682 95.2748 41.5922 95.2418 42.9095C95.1751 45.4443 94.7475 45.9193 94.0534 46.0874C93.8823 46.1378 93.7297 46.1509 93.5269 46.1684C93.4568 46.1746 93.3803 46.1807 93.2952 46.1899C93.0954 46.2236 92.9316 46.2893 92.9316 46.3917C92.9316 46.594 93.0954 46.6622 93.4589 46.6622C93.9418 46.6811 94.4036 46.6465 94.8561 46.6123C95.2076 46.5856 95.554 46.5598 95.9 46.5598C96.7831 46.5598 97.7766 46.5918 98.7396 46.6233H98.7401C99.1784 46.6373 99.6108 46.6513 100.023 46.6622C100.362 46.671 100.686 46.6824 101.025 46.6942C101.977 46.7275 103.041 46.7642 104.841 46.7642C106.13 46.7642 106.393 46.7643 106.624 45.8852C106.788 45.1742 107.052 42.8754 107.052 42.6048C107.052 42.3689 107.052 42.0988 106.854 42.0988C106.69 42.0988 106.624 42.2323 106.557 42.6048C106.293 44.0587 105.93 44.7675 104.874 45.1059C103.986 45.376 102.895 45.4102 101.906 45.4102C100.62 45.4102 99.7288 45.3419 99.1682 45.1059C98.3432 44.7701 98.1461 44.0246 98.0793 42.639C98.0554 42.1272 98.0661 39.9527 98.0738 38.3456C98.0768 37.72 98.0793 37.1802 98.0793 36.858V33.8824C98.0793 33.7484 98.1461 33.646 98.3098 33.646C98.8709 33.646 102.137 33.7116 103.028 33.8141C104.216 33.948 104.613 34.423 104.744 34.9291C104.844 35.2338 104.877 35.5722 104.877 35.8765C104.877 36.147 104.91 36.4172 105.107 36.4172C105.238 36.4172 105.305 36.2495 105.338 35.9106C105.348 35.7605 105.355 35.5792 105.362 35.3678C105.379 34.9156 105.4 34.3259 105.469 33.6118C105.531 32.9153 105.619 32.4294 105.675 32.1137C105.71 31.9242 105.733 31.7959 105.733 31.7201C105.733 31.5179 105.669 31.4496 105.568 31.4496C105.445 31.4496 105.35 31.5674 105.206 31.746L105.172 31.788C104.841 32.1951 104.413 32.2945 103.522 32.3628C102.764 32.4311 98.7046 32.4311 98.2769 32.4311C98.1127 32.4311 98.0793 32.3287 98.0793 32.0927V22.7635C98.0793 22.5275 98.1435 22.4251 98.2769 22.4251C98.6404 22.4251 102.237 22.4592 102.797 22.5275C104.247 22.6641 104.941 23.0025 105.172 23.7791C105.269 24.0497 105.335 24.4564 105.335 24.8946C105.335 25.1647 105.402 25.3328 105.599 25.3328C105.733 25.3328 105.83 25.0964 105.863 24.758C105.909 24.1464 105.94 23.6491 105.965 23.2328C105.976 23.0507 105.986 22.8834 105.996 22.7293C106.038 22.1366 106.131 21.7552 106.195 21.4956C106.233 21.3415 106.26 21.2299 106.26 21.1419C106.26 20.9738 106.229 20.8376 106.13 20.8376C106.029 20.8376 105.963 20.8718 105.766 20.9738C105.566 21.0736 104.972 21.1419 104.247 21.176C103.489 21.2102 96.9217 21.2102 96.6912 21.2102C94.6115 21.1078 93.7202 21.1078 92.962 21.1078C92.5985 21.1078 92.4347 21.176 92.4347 21.3779C92.4347 21.5118 92.6318 21.546 92.8624 21.5801C92.965 21.5919 93.083 21.5994 93.2036 21.6073C93.4324 21.6222 93.6694 21.6379 93.8203 21.6826C94.9087 21.9185 95.1726 22.4592 95.2393 23.6084ZM82.9527 31.6177C82.9527 31.7854 82.8556 31.8195 82.7555 31.8195H82.7504H68.7609C68.6638 31.8195 68.5638 31.7854 68.5638 31.6177V30.9063V30.905C68.5638 25.6345 68.5638 24.6871 68.6305 23.6062C68.6972 22.4224 68.9606 21.8476 69.8523 21.6799L69.8587 21.6786C70.2513 21.6112 70.4476 21.5775 70.6768 21.5775C70.8077 21.5775 70.9407 21.5118 70.9407 21.3752C70.9407 21.1734 70.7769 21.1051 70.4129 21.1051C69.712 21.1051 68.4637 21.1568 67.7375 21.1866C67.4395 21.1988 67.229 21.2076 67.1807 21.2076C67.1392 21.2076 66.9772 21.201 66.7347 21.1914H66.7342C66.0094 21.1625 64.5647 21.1051 63.4516 21.1051C63.088 21.1051 62.9238 21.1734 62.9238 21.3752C62.9238 21.5092 63.0547 21.5775 63.1877 21.5775C63.4849 21.5775 64.046 21.6116 64.3094 21.6799C65.3982 21.9159 65.6621 22.4566 65.7284 23.6062C65.7951 24.6871 65.7951 25.6318 65.7951 30.9063V36.8554C65.7951 40.0989 65.7951 42.7703 65.6313 44.1901C65.4979 45.169 65.3341 45.9114 64.6734 46.048C64.3787 46.1163 63.9818 46.1846 63.6846 46.1846C63.4875 46.1846 63.4208 46.284 63.4208 46.3864C63.4208 46.5887 63.585 46.657 63.9485 46.657C64.6511 46.657 65.9046 46.6049 66.6299 46.5751H66.6308C66.9258 46.5629 67.1333 46.5545 67.1807 46.5545C67.2188 46.5545 67.3591 46.5598 67.5746 46.5681C68.2918 46.5961 69.8437 46.657 71.2379 46.657C71.6014 46.657 71.7652 46.5546 71.7652 46.3864C71.7652 46.2866 71.6989 46.1846 71.5018 46.1846C71.2045 46.1846 70.4771 46.1163 70.0161 46.048C69.0273 45.9141 68.8302 45.1716 68.7301 44.1901C68.5663 42.7703 68.5663 40.1016 68.5663 36.8554V33.3049C68.5663 33.1368 68.6638 33.1031 68.7635 33.1031H82.753C82.8505 33.1031 82.9501 33.1683 82.9501 33.3049V36.8554V36.8558C82.9501 40.0989 82.9501 42.7703 82.7863 44.1901C82.6533 45.169 82.4891 45.9114 81.8284 46.048C81.5337 46.1163 81.1369 46.1846 80.8397 46.1846C80.6425 46.1846 80.5762 46.284 80.5762 46.3864C80.5762 46.5887 80.74 46.657 81.1035 46.657C81.8062 46.657 83.0596 46.6049 83.7854 46.5751C84.0804 46.5629 84.2887 46.5545 84.3357 46.5545C84.3738 46.5545 84.5141 46.5598 84.7296 46.5681C85.4472 46.5961 86.9988 46.657 88.3929 46.657C88.7564 46.657 88.9207 46.5546 88.9207 46.3864C88.9207 46.2866 88.8539 46.1846 88.6568 46.1846C88.3596 46.1846 87.6321 46.1163 87.1711 46.048C86.1828 45.9141 85.9852 45.1716 85.8856 44.1901C85.7218 42.7703 85.7218 40.1016 85.7218 36.8554V30.9063C85.7218 25.6345 85.7218 24.6871 85.7881 23.6062C85.8548 22.4224 86.1186 21.8476 87.0099 21.6799L87.0163 21.6786C87.4089 21.6112 87.6052 21.5775 87.8344 21.5775C87.9653 21.5775 88.0983 21.5118 88.0983 21.3752C88.0983 21.1734 87.9345 21.1051 87.571 21.1051C86.8696 21.1051 85.6217 21.1568 84.8951 21.1866C84.597 21.1988 84.3871 21.2076 84.3383 21.2076C84.2968 21.2076 84.1347 21.201 83.8923 21.1914C83.1674 21.1625 81.7223 21.1051 80.6091 21.1051C80.2456 21.1051 80.0818 21.1734 80.0818 21.3752C80.0818 21.5092 80.2123 21.5775 80.3457 21.5775C80.6425 21.5775 81.2036 21.6116 81.4674 21.6799C82.5558 21.9159 82.8197 22.4566 82.8864 23.6062C82.9527 24.6871 82.9527 25.6318 82.9527 30.9063V31.6177ZM175.434 45.8826C174.015 45.4102 173.782 43.5181 173.651 42.3006L173.657 42.298L171.446 21.5433C171.38 20.9002 171.28 20.6301 171.049 20.6301C170.819 20.6301 170.688 20.8665 170.555 21.1708L160.856 42.4004L150.759 21.1393C150.595 20.7693 150.465 20.6328 150.265 20.6328C150.065 20.6328 149.934 20.937 149.901 21.31L147.527 43.2821C147.516 43.371 147.506 43.459 147.496 43.5461L147.496 43.5465C147.35 44.8196 147.227 45.8983 146.208 46.0874C145.711 46.1899 145.48 46.1899 145.217 46.1899C145.05 46.1899 144.886 46.2551 144.886 46.3917C144.886 46.6281 145.116 46.6622 145.447 46.6622C146.012 46.6622 146.855 46.6211 147.472 46.5909C147.829 46.5734 148.11 46.5598 148.218 46.5598C148.302 46.5598 148.528 46.5699 148.837 46.5839H148.838C149.503 46.6145 150.552 46.6622 151.387 46.6622C151.717 46.6622 151.881 46.594 151.881 46.3575C151.881 46.2577 151.75 46.1899 151.551 46.1899C151.351 46.1899 150.923 46.1899 150.362 46.0533C149.868 45.9508 149.471 45.6807 149.471 44.8358C149.471 44.3166 149.498 43.881 149.528 43.4034L149.537 43.2479L150.89 27.327C151.253 28.2375 155.047 36.5879 155.344 37.1964C155.359 37.2284 155.398 37.3085 155.457 37.4293L155.464 37.4455C156.045 38.6394 158.429 43.5443 159.203 45.0376L159.259 45.1462C159.839 46.2757 160.002 46.594 160.226 46.594C160.485 46.594 160.592 46.3619 161.076 45.3143C161.147 45.1615 161.225 44.9912 161.314 44.8017L169.497 27.0201L171.08 44.6651C171.144 45.274 171.177 45.7801 170.947 45.8826C170.783 45.9508 170.716 45.9824 170.716 46.119C170.716 46.2893 170.883 46.3891 171.641 46.4574C172.862 46.5572 176.625 46.6596 177.35 46.6596C177.744 46.6596 177.844 46.5913 177.844 46.3891C177.844 46.2214 177.644 46.1873 177.48 46.1873C177.15 46.1873 176.392 46.1873 175.434 45.8826ZM187.031 36.6877C186.867 36.6877 186.768 36.7897 186.701 36.9578L184.721 42.9411C184.424 43.786 184.26 44.5968 184.26 45.2057C184.26 45.8825 184.888 46.1873 185.448 46.1873H185.746C186.076 46.1873 186.173 46.2551 186.173 46.3891C186.173 46.5913 185.876 46.6596 185.579 46.6596C185.107 46.6596 184.448 46.6228 183.916 46.5935C183.555 46.5738 183.252 46.5572 183.105 46.5572C182.986 46.5572 182.713 46.5681 182.346 46.5826C181.586 46.6128 180.422 46.6596 179.376 46.6596C178.948 46.6596 178.748 46.5913 178.748 46.3891C178.748 46.2525 178.912 46.1873 179.209 46.1873C179.44 46.1873 179.737 46.1531 180.001 46.119C181.519 45.9167 182.178 44.6309 182.772 42.9411L190.261 21.9501C190.658 20.835 190.788 20.6328 190.986 20.6328C191.183 20.6328 191.316 20.8009 191.711 21.8502C191.85 22.2119 192.358 23.5738 193.063 25.4594L193.064 25.4615C194.867 30.2873 197.951 38.5413 199.397 42.2349C200.585 45.2425 201.541 45.7854 202.235 45.9876C202.729 46.1557 203.257 46.1899 203.521 46.1899C203.718 46.1899 203.884 46.2236 203.884 46.3917C203.884 46.594 203.587 46.6622 203.223 46.6622C202.729 46.6622 200.319 46.6622 198.045 46.594C197.992 46.5909 197.94 46.5883 197.891 46.5856C197.358 46.5581 197.053 46.5427 197.053 46.3575C197.053 46.221 197.153 46.1557 197.284 46.1216C197.481 46.0533 197.681 45.749 197.481 45.2084L194.413 36.8922C194.346 36.7556 194.279 36.6903 194.116 36.6903H187.021L187.031 36.6877ZM193.696 35.4698C193.859 35.4698 193.859 35.3673 193.829 35.2338L190.694 26.1068C190.53 25.6003 190.363 25.6003 190.2 26.1068L187.295 35.2338C187.229 35.4015 187.295 35.4698 187.395 35.4698H193.696ZM213.391 44.1927C213.228 42.773 213.228 40.1042 213.228 36.858H213.233V22.559C213.926 22.5761 214.618 22.5844 215.311 22.5932C216.004 22.6015 216.697 22.6102 217.39 22.6273C220.556 22.693 221.347 23.4722 221.447 24.4853C221.447 24.5531 221.455 24.6122 221.463 24.6713C221.472 24.7304 221.48 24.7895 221.48 24.8578C221.513 25.3302 221.58 25.4322 221.744 25.4322C221.874 25.4322 221.974 25.2987 221.974 24.994C221.974 24.8535 221.989 24.4332 222.006 23.9105C222.036 23.048 222.074 21.9063 222.074 21.2759C222.074 21.071 222.074 20.8692 221.91 20.8692C221.849 20.8692 221.753 20.8902 221.62 20.9195C221.462 20.9541 221.253 21.0001 220.986 21.0368C220.455 21.1366 219.697 21.2049 218.642 21.2049H206.269C205.872 21.2049 204.619 21.1393 203.661 21.0368C203.089 20.9931 202.748 20.8381 202.516 20.7326C202.387 20.6735 202.292 20.6301 202.209 20.6301C202.087 20.6301 201.967 21.0001 201.897 21.2176C201.89 21.2373 201.884 21.2562 201.879 21.2732C201.815 21.5434 201.154 24.4511 201.154 24.7895C201.154 24.9914 201.218 25.0938 201.318 25.0938C201.451 25.0938 201.548 25.0255 201.648 24.7554L201.654 24.7409C201.752 24.5094 201.853 24.2712 202.209 23.7082C202.737 22.8974 203.528 22.6615 205.575 22.6273C206.383 22.6102 207.199 22.6015 208.015 22.5932C208.832 22.5844 209.648 22.5761 210.456 22.559V36.858V36.8589C210.456 40.102 210.456 42.773 210.293 44.1927C210.159 45.1716 209.995 45.9141 209.335 46.0507C209.04 46.1189 208.643 46.1873 208.346 46.1873C208.149 46.1873 208.082 46.2866 208.082 46.3891C208.082 46.5913 208.246 46.6596 208.61 46.6596C209.312 46.6596 210.566 46.6075 211.291 46.5778C211.587 46.5655 211.795 46.5572 211.842 46.5572C211.88 46.5572 212.02 46.5624 212.236 46.5707C212.953 46.5988 214.505 46.6596 215.899 46.6596C216.263 46.6596 216.427 46.5572 216.427 46.3891C216.427 46.2893 216.36 46.1873 216.163 46.1873C215.866 46.1873 215.138 46.1189 214.677 46.0507C213.689 45.9167 213.491 45.1742 213.391 44.1927Z" fill="#0063AA"/>
<path fill-rule="evenodd" clip-rule="evenodd" d="M139.84 57.1325C139.257 57.1325 138.729 57.2612 138.265 57.5212L138.26 57.5133C137.794 57.773 137.43 58.1324 137.167 58.5942C136.903 59.0561 136.772 59.581 136.772 60.1532C136.772 60.7249 136.903 61.2393 137.167 61.7012C137.43 62.1631 137.794 62.5251 138.26 62.7878C138.724 63.05 139.246 63.1814 139.825 63.1814C140.511 63.1814 141.114 63.0133 141.625 62.6748V60.9719H140.263V60.1112H142.681V63.184C142.299 63.5066 141.856 63.7536 141.352 63.9265C140.847 64.0998 140.319 64.1865 139.771 64.1865C138.995 64.1865 138.296 64.0132 137.674 63.6642C137.051 63.3153 136.565 62.8351 136.209 62.2235C135.853 61.6119 135.676 60.9246 135.676 60.1584C135.676 59.3919 135.853 58.7019 136.209 58.0877C136.565 57.4713 137.056 56.9937 137.681 56.647C138.306 56.3033 139.011 56.1304 139.794 56.1304C140.409 56.1304 140.967 56.235 141.469 56.4399C141.971 56.6443 142.399 56.949 142.75 57.3452L142.069 58.0431C141.454 57.4372 140.711 57.1325 139.84 57.1325ZM81.3674 56.2219H82.466V63.1183H86.6284V64.0972H81.3674V56.2219ZM93.4872 64.0998L96.9679 56.2219H98.0541L101.548 64.0998H100.395L99.5496 62.1316H95.4647L94.6192 64.0998H93.4872ZM97.5059 57.3689L95.8487 61.2288H99.1656L97.5059 57.3689ZM115.942 62.6565L113.824 56.2219H112.812L110.65 62.6223L108.573 56.2219H107.443L110.012 64.0972H111.188L113.286 57.8071L115.383 64.0972H116.536L119.105 56.2219H118.062L115.942 62.6565ZM156.645 60.5205C156.937 60.0928 157.083 59.5758 157.083 58.9668C157.083 58.1114 156.798 57.4398 156.227 56.9517C155.656 56.4635 154.873 56.2192 153.876 56.2192H150.877V64.0972H151.976V61.7012H153.876C153.994 61.7012 154.155 61.6933 154.36 61.6776L156.017 64.0972H157.214L155.39 61.4521C155.93 61.2577 156.348 60.9456 156.642 60.5179L156.645 60.5205ZM153.845 60.746H151.978V57.2008H153.845C154.542 57.2008 155.072 57.3531 155.438 57.6574C155.805 57.9621 155.987 58.3977 155.987 58.9694C155.987 59.5416 155.805 59.9772 155.438 60.2867C155.072 60.594 154.542 60.7486 153.845 60.7486V60.746ZM168.508 56.133C169.277 56.133 169.974 56.3059 170.596 56.6548C171.218 57.0042 171.705 57.4844 172.056 58.0956C172.407 58.7072 172.583 59.3945 172.583 60.1611C172.583 60.9272 172.407 61.6145 172.056 62.2261C171.705 62.8377 171.218 63.318 170.596 63.6669C169.974 64.0158 169.285 64.1892 168.508 64.1892C167.732 64.1892 167.033 64.0158 166.411 63.6669C165.789 63.318 165.302 62.8351 164.946 62.2209C164.59 61.604 164.413 60.9193 164.413 60.1611C164.413 59.4024 164.59 58.7151 164.946 58.1009C165.299 57.4871 165.789 57.0042 166.411 56.6548C167.033 56.3085 167.74 56.133 168.508 56.133ZM170.03 62.7931C170.481 62.5304 170.834 62.1683 171.095 61.7065C171.354 61.2446 171.484 60.7302 171.484 60.1584C171.484 59.5863 171.354 59.0719 171.095 58.61C170.834 58.1481 170.481 57.7861 170.03 57.5238C169.579 57.2612 169.072 57.1298 168.508 57.1298C167.945 57.1298 167.435 57.2612 166.977 57.5238C166.521 57.7861 166.16 58.1481 165.901 58.61C165.642 59.0719 165.512 59.5863 165.512 60.1584C165.512 60.7302 165.642 61.2446 165.901 61.7065C166.16 62.1683 166.519 62.5304 166.977 62.7931C167.433 63.0553 167.945 63.1866 168.508 63.1866C169.072 63.1866 169.579 63.0553 170.03 62.7931ZM185.776 60.6545C185.776 61.5099 185.589 62.1447 185.215 62.5619C184.841 62.9791 184.303 63.1866 183.602 63.1866C182.16 63.1866 181.437 62.3417 181.437 60.6545V56.2219H180.339V60.7013C180.339 61.8273 180.623 62.6906 181.194 63.2891C181.765 63.8897 182.562 64.1892 183.589 64.1892C184.616 64.1892 185.412 63.8897 185.984 63.2943C186.555 62.6985 186.839 61.8325 186.839 60.7013V56.2219H185.774V60.6545H185.776ZM198.173 56.2192C199.169 56.2192 199.953 56.4635 200.524 56.9517C201.095 57.4398 201.379 58.114 201.379 58.9668C201.379 59.8196 201.095 60.4916 200.524 60.9797C199.953 61.4679 199.169 61.7117 198.173 61.7117H196.272V64.0972H195.173V56.2192H198.173ZM198.139 60.7328C198.836 60.7328 199.366 60.5809 199.733 60.2762V60.2815C200.099 59.9772 200.281 59.5416 200.281 58.9694C200.281 58.3977 200.099 57.9621 199.733 57.6574C199.366 57.3531 198.836 57.2008 198.139 57.2008H196.272V60.7328H198.139Z" fill="#0063AA"/>
</svg>
