<svg width="70" height="70" viewBox="0 0 70 70" fill="none" xmlns="http://www.w3.org/2000/svg">
<g id="ic:baseline-whatsapp">
<path id="Vector" d="M55.5625 14.3207C52.8885 11.6196 49.7034 9.47805 46.1931 8.02083C42.6828 6.56362 38.9174 5.81994 35.1167 5.83318C19.1917 5.83318 6.21249 18.8123 6.21249 34.7373C6.21249 39.8415 7.55416 44.7999 10.0625 49.1749L5.97916 64.1665L21.2917 60.1415C25.5208 62.4457 30.275 63.6707 35.1167 63.6707C51.0417 63.6707 64.0208 50.6915 64.0208 34.7665C64.0208 27.0373 61.0167 19.7748 55.5625 14.3207ZM35.1167 58.7707C30.8 58.7707 26.5708 57.604 22.8667 55.4165L21.9917 54.8915L12.8917 57.2832L15.3125 48.4165L14.7292 47.5124C12.3309 43.6827 11.0575 39.256 11.0542 34.7373C11.0542 21.4957 21.8458 10.704 35.0875 10.704C41.5042 10.704 47.5417 13.2123 52.0625 17.7623C54.301 19.9906 56.0749 22.6409 57.2816 25.5598C58.4882 28.4787 59.1034 31.6081 59.0917 34.7665C59.15 48.0082 48.3583 58.7707 35.1167 58.7707ZM48.3 40.804C47.5708 40.454 44.0125 38.704 43.3708 38.4415C42.7 38.2082 42.2333 38.0915 41.7375 38.7915C41.2417 39.5207 39.8708 41.154 39.4625 41.6207C39.0542 42.1165 38.6167 42.1748 37.8875 41.7957C37.1583 41.4457 34.825 40.6582 32.0833 38.2082C29.925 36.2832 28.4958 33.9207 28.0583 33.1915C27.65 32.4623 28 32.0832 28.3792 31.704C28.7 31.3832 29.1083 30.8582 29.4583 30.4498C29.8083 30.0415 29.9542 29.7207 30.1875 29.254C30.4208 28.7582 30.3042 28.3498 30.1292 27.9998C29.9542 27.6499 28.4958 24.0915 27.9125 22.6332C27.3292 21.2332 26.7167 21.4082 26.2792 21.379H24.8792C24.3833 21.379 23.625 21.554 22.9542 22.2832C22.3125 23.0123 20.4458 24.7623 20.4458 28.3207C20.4458 31.879 23.0417 35.3207 23.3917 35.7873C23.7417 36.2832 28.4958 43.5748 35.7292 46.6957C37.45 47.454 38.7917 47.8915 39.8417 48.2123C41.5625 48.7665 43.1375 48.679 44.3917 48.504C45.7917 48.2998 48.6792 46.754 49.2625 45.0623C49.875 43.3707 49.875 41.9415 49.6708 41.6207C49.4667 41.2999 49.0292 41.154 48.3 40.804Z" fill="#C6C6C6"/>
</g>
</svg>
