<svg width="70" height="70" viewBox="0 0 70 70" fill="none" xmlns="http://www.w3.org/2000/svg">
<path d="M60.8043 43.3288L47.9227 37.5566L47.8871 37.5402C47.2184 37.2541 46.4889 37.1394 45.7646 37.2062C45.0403 37.273 44.3442 37.5194 43.7391 37.923C43.6678 37.97 43.5993 38.0212 43.534 38.0761L36.8785 43.7499C32.6621 41.7019 28.309 37.3816 26.2609 33.2199L31.943 26.4632C31.9977 26.3949 32.0496 26.3265 32.0988 26.2527C32.4937 25.6492 32.7334 24.9575 32.7963 24.239C32.8593 23.5205 32.7437 22.7977 32.4598 22.1347V22.1019L26.6711 9.19837C26.2958 8.3323 25.6504 7.61084 24.8314 7.14168C24.0123 6.67253 23.0635 6.48084 22.1266 6.59525C18.4214 7.0828 15.0204 8.90243 12.5588 11.7143C10.0972 14.5261 8.7433 18.1378 8.75 21.8749C8.75 43.5859 26.4141 61.2499 48.125 61.2499C51.8621 61.2566 55.4738 59.9027 58.2857 57.4411C61.0975 54.9795 62.9171 51.5785 63.4047 47.8734C63.5193 46.9367 63.328 45.9882 62.8594 45.1692C62.3907 44.3501 61.6699 43.7046 60.8043 43.3288ZM48.125 56.8749C38.8455 56.8648 29.949 53.1741 23.3875 46.6125C16.8259 40.0509 13.1351 31.1544 13.125 21.8749C13.1147 19.2048 14.0767 16.6222 15.8313 14.6094C17.5859 12.5967 20.0132 11.2914 22.6598 10.9374C22.6587 10.9483 22.6587 10.9593 22.6598 10.9702L28.402 23.8218L22.75 30.5867C22.6926 30.6527 22.6405 30.7231 22.5941 30.7972C22.1827 31.4286 21.9413 32.1556 21.8934 32.9078C21.8455 33.6599 21.9927 34.4117 22.3207 35.0902C24.798 40.157 29.9031 45.2238 35.0246 47.6984C35.7081 48.0233 36.4642 48.1655 37.2191 48.1108C37.9739 48.0562 38.7017 47.8067 39.3313 47.3867C39.4015 47.3394 39.469 47.2882 39.5336 47.2335L46.1809 41.5624L59.0324 47.3183H59.0625C58.7128 49.9686 57.4095 52.4008 55.3964 54.1597C53.3833 55.9187 50.7983 56.8839 48.125 56.8749Z" fill="#C6C6C6"/>
</svg>
