<svg width="29" height="30" viewBox="0 0 29 30" fill="none" xmlns="http://www.w3.org/2000/svg">
<g clip-path="url(#clip0_892_6045)">
<path d="M13.7153 25.0381C13.667 25.2312 13.5556 25.4027 13.3986 25.5252C13.2417 25.6478 13.0483 25.7144 12.8492 25.7144C12.774 25.7148 12.699 25.7058 12.626 25.6876L9.05459 24.7947C8.95516 24.7698 8.86077 24.7279 8.77557 24.6709L6.097 22.8851C5.90001 22.7537 5.7633 22.5494 5.71694 22.3172C5.67057 22.085 5.71836 21.8439 5.84979 21.6469C5.98121 21.4499 6.18551 21.3132 6.41773 21.2668C6.64995 21.2204 6.89108 21.2682 7.08807 21.3997L9.63718 23.0994L13.0591 23.9555C13.1734 23.9832 13.2811 24.0332 13.376 24.1027C13.471 24.1722 13.5512 24.2597 13.6122 24.3603C13.6732 24.4609 13.7137 24.5726 13.7314 24.6889C13.7491 24.8052 13.7436 24.9239 13.7153 25.0381ZM28.5245 14.2724C28.4512 14.495 28.3346 14.7008 28.1813 14.8779C28.0281 15.0551 27.8412 15.2002 27.6316 15.3048L24.9887 16.6262L18.8414 22.7747C18.7323 22.8837 18.5968 22.9625 18.4482 23.0036C18.2995 23.0447 18.1428 23.0465 17.9932 23.009L10.8503 21.2233C10.7417 21.196 10.6391 21.1487 10.5479 21.0838L4.35146 16.6597L1.64164 15.3048C1.21813 15.0931 0.896037 14.7218 0.746185 14.2727C0.596332 13.8236 0.630988 13.3333 0.842532 12.9097L3.61597 7.36395C3.82768 6.94044 4.19892 6.61834 4.64806 6.46849C5.0972 6.31864 5.58747 6.35329 6.01106 6.56484L8.47311 7.79252L14.3883 6.10278C14.5488 6.05688 14.7189 6.05688 14.8794 6.10278L20.7945 7.79252L23.2566 6.56484C23.6802 6.35329 24.1705 6.31864 24.6196 6.46849C25.0687 6.61834 25.44 6.94044 25.6517 7.36395L28.4251 12.9097C28.5309 13.119 28.5942 13.3472 28.6112 13.5811C28.6283 13.815 28.5988 14.05 28.5245 14.2724ZM23.3704 15.7166L20.3336 9.64296H16.7823L11.9564 14.3305C13.3693 15.2334 15.5847 15.4822 17.5724 13.4789C17.7277 13.3224 17.9353 13.2289 18.1554 13.2163C18.3754 13.2038 18.5924 13.273 18.7644 13.4108L22.6048 16.4878L23.3704 15.7166ZM2.43963 13.7077L4.41396 14.6954L7.1874 9.14966L5.21307 8.16194L2.43963 13.7077ZM21.3314 17.7523L18.2387 15.2758C16.0579 17.0615 13.289 17.297 10.9943 15.8338C10.7686 15.6902 10.578 15.4978 10.4367 15.2706C10.2953 15.0435 10.2068 14.7876 10.1777 14.5216C10.1485 14.2557 10.1795 13.9866 10.2683 13.7343C10.3571 13.4819 10.5015 13.2528 10.6907 13.0637C10.6934 13.0605 10.6964 13.0575 10.6997 13.0548L15.7064 8.19877L14.6349 7.89296L9.00771 9.50122L5.95302 15.6095L11.4441 19.5325L17.9329 21.1541L21.3314 17.7523ZM26.8269 13.7077L24.0568 8.16194L22.0825 9.14966L24.8559 14.6954L26.8269 13.7077Z" fill="#07B88C"/>
</g>
<defs>
<clipPath id="clip0_892_6045">
<rect width="28.5714" height="28.5714" fill="white" transform="translate(0.349228 0.714355)"/>
</clipPath>
</defs>
</svg>
