<svg width="110" height="116" viewBox="0 0 110 116" fill="none" xmlns="http://www.w3.org/2000/svg">
<g clip-path="url(#clip0_892_4485)">
<path d="M9.18138e-06 10.9809C8.70815 4.54327 18.9267 1.84811 29.4536 0.508225C42.1844 -1.10888 54.4683 1.15506 66.4901 5.72915C78.3579 10.257 86.2954 18.3117 90.765 30.078C97.7315 48.4514 98.718 67.0865 93.601 86.0605C92.7687 89.1561 92.0443 92.2671 91.3045 95.3781C91.2582 95.5783 91.474 95.8401 91.7977 96.6564C97.5004 92.6367 103.111 88.6787 108.736 84.7206C109.152 85.0595 109.584 85.3983 110 85.7371C109.83 86.9692 110.123 88.7095 109.414 89.3717C100.182 97.9501 90.8883 106.467 81.4096 114.752C78.8511 116.986 76.5392 116.139 74.89 112.935C73.9961 111.195 73.7187 109.147 72.8555 107.391C71.2218 104.11 69.2952 100.969 67.569 97.7344C65.9969 94.7775 64.5173 91.7743 62.7911 88.4169C67.9389 88.3091 69.1719 89.2639 78.3424 99.7366C79.1285 98.0887 79.9299 96.7334 80.4231 95.2857C86.1721 78.7451 89.3779 61.9734 85.7097 44.4009C80.9164 21.4227 74.181 13.2448 48.0104 6.59159C33.3221 2.84916 19.0963 5.72915 5.13242 10.6266C3.59115 11.1657 2.08071 11.8279 0.554864 12.444L-0.0153946 10.9809L9.18138e-06 10.9809Z" fill="#07B88C"/>
</g>
<defs>
<clipPath id="clip0_892_4485">
<rect width="110" height="116" fill="white" transform="translate(110 116) rotate(-180)"/>
</clipPath>
</defs>
</svg>
