<svg width="214" height="37" viewBox="0 0 214 37" fill="none" xmlns="http://www.w3.org/2000/svg">
<path d="M4.804 13.5H9.34C12.544 13.5 13.984 11.952 13.984 9.432C13.984 6.84 12.544 5.328 9.34 5.328H4.804V13.5ZM18.196 9.432C18.196 12.996 15.856 16.848 9.34 16.848H4.804V27H0.7V1.98H9.34C15.28 1.98 18.196 5.364 18.196 9.432ZM41.7302 17.064C41.7302 23.292 37.1222 27.324 31.4342 27.324C25.7822 27.324 21.4982 23.292 21.4982 17.064C21.4982 10.836 25.9622 6.84 31.6142 6.84C37.2662 6.84 41.7302 10.836 41.7302 17.064ZM25.6742 17.064C25.6742 21.564 28.3382 23.76 31.4342 23.76C34.4942 23.76 37.5182 21.564 37.5182 17.064C37.5182 12.564 34.6022 10.404 31.5422 10.404C28.4462 10.404 25.6742 12.564 25.6742 17.064ZM50.3592 27L44.1672 7.164H48.3432L52.4832 23.112L56.6952 7.164H60.9792L65.0112 23.04L69.1152 7.164H73.1472L66.9912 27H62.6712L58.6752 12.348L54.6792 27H50.3592ZM85.2862 10.296C82.5142 10.296 80.2822 12.168 79.8502 15.3H90.8302C90.7582 12.24 88.3462 10.296 85.2862 10.296ZM94.5742 21.096C93.4582 24.552 90.3262 27.324 85.4662 27.324C79.7782 27.324 75.5662 23.292 75.5662 17.064C75.5662 10.836 79.5982 6.84 85.4662 6.84C91.1182 6.84 95.1142 10.764 95.1142 16.596C95.1142 17.28 95.0782 17.928 94.9702 18.612H79.8142C80.1022 21.888 82.4422 23.868 85.4662 23.868C87.9862 23.868 89.3902 22.644 90.1462 21.096H94.5742ZM103.977 16.56V27H99.873V7.164H103.977V10.044C105.129 8.064 107.109 6.84 109.917 6.84V11.088H108.873C105.849 11.088 103.977 12.348 103.977 16.56ZM122.761 10.296C119.989 10.296 117.757 12.168 117.325 15.3H128.305C128.233 12.24 125.821 10.296 122.761 10.296ZM132.049 21.096C130.933 24.552 127.801 27.324 122.941 27.324C117.253 27.324 113.041 23.292 113.041 17.064C113.041 10.836 117.073 6.84 122.941 6.84C128.593 6.84 132.589 10.764 132.589 16.596C132.589 17.28 132.553 17.928 132.445 18.612H117.289C117.577 21.888 119.917 23.868 122.941 23.868C125.461 23.868 126.865 22.644 127.621 21.096H132.049ZM135.98 16.992C135.98 10.872 140.12 6.84 145.376 6.84C147.968 6.84 150.704 8.064 152.216 9.936V0.36H156.356V27H152.216V24.012C150.956 25.812 148.58 27.324 145.34 27.324C140.12 27.324 135.98 23.112 135.98 16.992ZM152.216 17.064C152.216 12.816 149.3 10.404 146.204 10.404C143.144 10.404 140.192 12.708 140.192 16.992C140.192 21.276 143.144 23.76 146.204 23.76C149.3 23.76 152.216 21.348 152.216 17.064ZM186.65 19.836C186.65 17.352 184.778 15.84 182.042 15.84H176.642V23.652H182.186C184.958 23.652 186.65 22.248 186.65 19.836ZM186.002 8.928C186.002 6.66 184.382 5.328 181.718 5.328H176.642V12.492H181.718C184.382 12.492 186.002 11.232 186.002 8.928ZM190.754 20.268C190.754 24.084 187.658 27 182.546 27H172.538V1.98H182.078C187.37 1.98 190.178 4.896 190.178 8.424C190.178 11.448 188.342 13.284 185.93 14.148C188.594 14.616 190.754 17.28 190.754 20.268ZM203.746 22.284L209.542 7.164H213.79L201.622 36.324H197.374L201.406 26.676L193.594 7.164H198.166L203.746 22.284Z" fill="#363E45"/>
</svg>
