<svg width="15" height="16" viewBox="0 0 15 16" fill="none" xmlns="http://www.w3.org/2000/svg">
<path d="M3.4375 4.875C3.18886 4.875 2.9504 4.77623 2.77459 4.60041C2.59877 4.4246 2.5 4.18614 2.5 3.9375C2.5 3.68886 2.59877 3.4504 2.77459 3.27459C2.9504 3.09877 3.18886 3 3.4375 3C3.68614 3 3.9246 3.09877 4.10041 3.27459C4.27623 3.4504 4.375 3.68886 4.375 3.9375C4.375 4.18614 4.27623 4.4246 4.10041 4.60041C3.9246 4.77623 3.68614 4.875 3.4375 4.875ZM13.3813 7.7375L7.75625 2.1125C7.53125 1.8875 7.21875 1.75 6.875 1.75H2.5C1.80625 1.75 1.25 2.30625 1.25 3V7.375C1.25 7.71875 1.3875 8.03125 1.61875 8.25625L7.2375 13.8813C7.46875 14.1062 7.78125 14.25 8.125 14.25C8.46875 14.25 8.78125 14.1062 9.00625 13.8813L13.3813 9.50625C13.6125 9.28125 13.75 8.96875 13.75 8.625C13.75 8.275 13.6062 7.9625 13.3813 7.7375Z" fill="#07B88C"/>
</svg>
